<?xml version="1.0" encoding="utf-8"?>
<!-- Generator: Adobe Illustrator 17.1.0, SVG Export Plug-In . SVG Version: 6.00 Build 0)  -->
<!DOCTYPE svg PUBLIC "-//W3C//DTD SVG 1.0//EN" "http://www.w3.org/TR/2001/REC-SVG-20010904/DTD/svg10.dtd">
<svg version="1.0" id="Layer_1" xmlns="http://www.w3.org/2000/svg" xmlns:xlink="http://www.w3.org/1999/xlink" x="0px" y="0px"
	 viewBox="0 0 210 38.167" enable-background="new 0 0 210 38.167" xml:space="preserve">
<g>
	<polygon fill="#00953A" points="9.574,37.444 0.812,32.386 0.812,22.269 9.574,17.21 18.336,22.269 18.336,32.386 	"/>
	<polygon fill="#00953A" points="28.619,37.444 19.857,32.386 19.857,22.269 28.619,17.21 37.381,22.269 37.381,32.386 	"/>
	<polygon fill="#00953A" points="19.097,21.134 10.335,16.074 10.335,5.958 19.097,0.899 27.859,5.958 27.859,16.074 	"/>
	<path fill="#3E4543" d="M95.193,5.944H84.865l-7.372,26.462h6.838l1.923-6.66h7.514l1.888,6.66h6.981L95.193,5.944z M87.179,20.973
		l2.707-11.076h0.249l2.742,11.076H87.179z"/>
	<rect x="45.399" y="5.944" fill="#3E4543" width="6.66" height="26.462"/>
	<g>
		<path fill="#3E4543" d="M64.38,32.726c-3.454,0-5.699-0.071-9.117-0.32V5.943c3.383-0.248,5.485-0.32,9.117-0.32
			c8.904,0,12.821,3.776,12.821,12.109v2.742C77.202,28.951,73.463,32.726,64.38,32.726 M70.649,17.733
			c0-5.627-1.745-7.088-6.197-7.088h-2.707V27.74h2.707c4.452,0,6.197-1.638,6.197-7.266V17.733z"/>
		<rect x="112.463" y="5.944" fill="#3E4543" width="3.277" height="26.462"/>
		<path fill="#3E4543" d="M122.221,16.842v15.564h-3.169V12.818h3.133v1.567c1.854-1.46,4.239-2.066,6.981-2.066v2.85
			C126.601,15.168,123.716,15.88,122.221,16.842"/>
		<path fill="#3E4543" d="M133.339,23.787v0.391c0,3.384,0.499,5.948,5.912,5.948c2.173,0,4.986-0.249,6.837-0.57v2.565
			c-1.353,0.355-3.739,0.784-6.98,0.784c-6.945,0-8.975-3.099-8.975-9.439v-1.496c0-6.161,2.743-9.652,8.299-9.652
			c5.769,0,8.406,3.455,8.406,10.043v1.425H133.339z M143.525,20.795c0-2.386-0.5-5.698-5.058-5.698
			c-4.487,0-5.093,3.312-5.093,5.698v0.356h10.151V20.795z"/>
		<rect x="149.839" y="4.84" fill="#3E4543" width="3.169" height="27.566"/>
		<path fill="#3E4543" d="M167.798,32.406v-1.318c-1.175,0.82-3.312,1.817-6.232,1.817c-3.668,0-5.84-1.64-5.84-5.557v-0.712
			c0-5.164,3.524-6.055,9.009-6.055h2.921v-1.424c0-3.383-0.676-4.132-4.595-4.132c-2.173,0-3.917,0.178-6.054,0.428v-2.279
			c0.569-0.214,3.277-0.855,6.304-0.855c6.516,0,7.55,2.387,7.55,6.839v13.249H167.798z M167.656,23.004h-2.921
			c-4.131,0-5.804,0.498-5.804,3.633v0.962c0,2.208,1.354,2.813,3.277,2.813c2.313,0,4.629-1.033,5.448-1.568V23.004z"/>
		<path fill="#3E4543" d="M187,32.406v-12.5c0-3.562-0.568-4.844-3.275-4.844c-1.532,0-3.563,0.606-6.162,1.744v15.6h-3.169V12.818
			h3.169v1.532c2.28-1.175,4.345-2.03,6.518-2.03c5.201,0,6.126,2.813,6.126,7.586v12.5H187z"/>
		<path fill="#3E4543" d="M206.028,32.406v-0.997c-1.318,0.783-3.206,1.496-5.485,1.496c-4.595,0-7.302-2.6-7.302-8.37v-3.383
			c0-7.017,3.527-8.832,8.085-8.832c1.567,0,3.027,0.178,4.595,0.498V4.839h3.205v27.566H206.028z M205.922,15.489
			c-1.603-0.285-3.313-0.463-4.381-0.463c-3.17,0-5.094,0.89-5.094,6.126v3.383c0,3.882,1.426,5.626,4.702,5.626
			c1.745,0,3.311-0.498,4.772-1.21V15.489z"/>
	</g>
</g>
</svg>
